<svg width="454" height="227" viewBox="0 0 454 227" fill="none" xmlns="http://www.w3.org/2000/svg">
<path fill-rule="evenodd" clip-rule="evenodd" d="M254.351 51.8668C279.07 37.7261 304.018 24.2918 329 10.7093C328.87 27.4382 328.926 44.1449 328.959 60.8746C328.982 72.9815 329.006 85.11 329.029 97.2374C329.037 100.982 328.945 102.683 328.908 111.84C300.709 128.375 270.486 144.48 241.646 159.923C241.536 143.08 241.524 126.282 241.558 109.437C241.581 97.66 241.606 85.8924 241.629 74.1456C241.637 70.207 241.68 63.3831 241.568 58.8646C248.013 55.4037 250.991 53.7887 254.351 51.8668V51.8668Z" fill="#FEFEFE" stroke="#2B2A29" stroke-width="0.755906" stroke-miterlimit="22.9256"/>
<path d="M277.259 68.1778L295.641 89.9607L295.627 57.538C295.626 55.4355 296.023 53.6409 296.807 52.1469C297.592 50.6525 298.655 49.5201 299.995 48.7631C301.37 47.9864 302.468 47.8859 303.269 48.4876C304.069 49.09 304.471 50.4514 304.473 52.5596L304.509 95.5332C304.513 100.341 302.778 103.689 299.309 105.583C298.444 106.056 297.667 106.34 296.968 106.429C296.281 106.524 295.626 106.424 295.028 106.14C294.419 105.85 293.865 105.428 293.345 104.874C292.825 104.332 292.306 103.765 291.786 103.186L273.893 81.4734L273.876 113.185C273.875 115.256 273.459 117.05 272.629 118.565C271.789 120.085 270.72 121.199 269.424 121.907C268.086 122.638 267.01 122.696 266.207 122.064C265.393 121.438 264.993 120.095 264.995 118.054L265.034 76.4103C265.036 74.6411 265.211 73.1637 265.547 71.9705C265.949 70.6401 266.622 69.3577 267.555 68.1286C268.489 66.9116 269.498 65.9898 270.574 65.382C271.433 64.8971 272.161 64.6488 272.759 64.625C273.369 64.6076 273.902 64.7342 274.36 65.0166C274.817 65.2993 275.285 65.7271 275.765 66.325C276.244 66.9109 276.746 67.522 277.259 68.1778V68.1778Z" fill="#2B2A29"/>
<path fill-rule="evenodd" clip-rule="evenodd" d="M332.379 116.722C346.27 125.198 360.752 133.216 374.848 141.389C389.983 150.164 404.942 158.935 419.935 167.935C392.311 183.234 359.308 202.844 331.825 216.316C320.013 210.867 301.902 198.516 289.756 191.595C274.537 182.923 259.371 173.766 244.148 165.225C273.621 148.926 302.966 133.498 332.379 116.722Z" fill="#FEFEFE" stroke="#2B2A29" stroke-width="0.755906" stroke-miterlimit="22.9256"/>
<path d="M328.273 150.222L309.872 161.01L321.829 167.874L337.167 158.839C338.575 158.01 339.967 157.568 341.297 157.528C342.638 157.494 343.855 157.785 344.924 158.402C346.005 159.024 346.507 159.723 346.442 160.505C346.367 161.293 345.626 162.096 344.243 162.913L328.936 171.954L344.27 180.756C346.219 181.875 347.221 182.961 347.299 184.015C347.377 185.069 346.735 185.996 345.391 186.796C344.015 187.616 342.417 188.01 340.598 187.978C338.778 187.947 336.896 187.38 334.975 186.28L298.96 165.646C297.593 164.862 296.683 164.102 296.219 163.373C295.755 162.643 295.748 161.912 296.21 161.186C296.671 160.46 297.567 159.708 298.898 158.93L320.981 146.02C322.47 145.15 323.91 144.698 325.29 144.661C326.679 144.629 327.92 144.923 328.993 145.541C330.099 146.179 330.624 146.904 330.579 147.711C330.524 148.511 329.759 149.351 328.273 150.222V150.222Z" fill="#2B2A29"/>
<path d="M396.394 75.8083C392.882 73.8187 389.379 71.8303 385.868 69.8392C385.861 76.5793 385.855 83.2891 385.849 89.9773C385.843 96.6557 385.837 103.314 385.83 109.962C385.829 112.256 385.37 113.695 384.48 114.313C383.591 114.929 382.447 114.843 381.049 114.064C379.615 113.265 378.445 112.058 377.547 110.428C376.649 108.797 376.199 106.851 376.197 104.58C376.192 97.9128 376.187 91.2344 376.182 84.5359C376.176 77.8277 376.171 71.0978 376.166 64.348C372.627 62.341 369.08 60.3311 365.542 58.323C363.875 57.3766 362.634 56.2379 361.822 54.9264C361.005 53.6066 360.59 52.2282 360.586 50.8142C360.581 49.3693 361.004 48.4569 361.844 48.0896C362.685 47.7222 363.909 47.9974 365.517 48.9124C370.686 51.8551 375.864 54.8035 381.009 57.7308C386.15 60.6561 391.295 63.5819 396.42 66.4966C398.098 67.451 399.339 68.5674 400.146 69.9043C400.949 71.2328 401.355 72.5938 401.35 73.9699C401.345 75.366 400.915 76.2482 400.096 76.6303C399.277 77.0124 398.052 76.7475 396.394 75.8083V75.8083Z" fill="#FEFEFE"/>
<path d="M147.749 77.7938C148.51 79.0868 149.954 79.752 151.454 79.752C161.158 79.752 166.976 79.752 172.354 79.752C175.114 79.752 177.351 81.9877 177.354 84.7472C177.364 95.2986 177.375 105.811 177.385 116.294C177.396 128.412 177.408 140.494 177.42 152.556C177.421 153.613 177.421 154.036 177.749 154.621C178.341 155.674 178.894 156.899 179.845 157.642C181.39 158.85 184.422 159.892 186.627 160C189.443 159.761 193.657 159.171 195.219 156.132C195.997 154.618 195.997 154.671 195.997 152.556C196.007 140.458 195.988 118.575 195.997 106.42C195.997 92.0364 195.997 92.0001 195.997 79.8444C195.997 79.7845 195.997 79.7313 195.994 79.6715C195.936 78.5028 195.09 65 186.766 65C176.997 65 162.264 65 151.708 65C150.061 65 148.507 65.8036 147.729 67.2559C146.899 68.8078 145.994 70.8742 146 72.5C146.007 74.4052 146.919 76.3851 147.749 77.7938Z" fill="#FEFEFE"/>
<path d="M225.251 77.7938C224.49 79.0868 223.046 79.752 221.546 79.752C211.842 79.752 206.024 79.752 200.646 79.752C197.886 79.752 195.649 81.9877 195.646 84.7472C195.636 95.2986 195.625 105.811 195.615 116.294C195.604 128.412 195.592 140.494 195.58 152.556C195.579 153.613 195.579 154.036 195.251 154.621C194.659 155.674 194.106 156.899 193.155 157.642C191.61 158.85 188.578 159.892 186.373 160C183.557 159.761 179.343 159.171 177.781 156.132C177.003 154.618 177.003 154.671 177.003 152.556C176.993 140.458 177.012 118.575 177.003 106.42C177.003 92.0364 177.003 92.0001 177.003 79.8444C177.003 79.7845 177.003 79.7313 177.006 79.6715C177.064 78.5028 177.91 65 186.234 65C196.003 65 210.736 65 221.292 65C222.939 65 224.493 65.8036 225.271 67.2559C226.101 68.8078 227.006 70.8742 227 72.5C226.993 74.4052 226.081 76.3851 225.251 77.7938Z" fill="#FEFEFE"/>
<path d="M59.7487 77.7938C60.5102 79.0868 61.9535 79.752 63.454 79.752C73.1584 79.752 78.9759 79.752 84.3542 79.752C87.1138 79.752 89.3513 81.9877 89.3539 84.7472C89.3641 95.2986 89.3747 105.811 89.3848 116.294C89.3957 128.412 89.4081 140.494 89.4205 152.556C89.4214 153.613 89.4212 154.036 89.7494 154.621C90.3405 155.674 90.8936 156.899 91.845 157.642C93.39 158.85 96.4221 159.892 98.627 160C101.443 159.761 105.657 159.171 107.219 156.132C107.997 154.618 107.997 154.671 107.997 152.556C108.007 140.458 107.988 118.575 107.997 106.42C107.997 92.0364 107.997 92.0001 107.997 79.8444C107.997 79.7845 107.997 79.7313 107.994 79.6715C107.936 78.5028 107.09 65 98.7658 65C88.9966 65 74.2639 65 63.7077 65C62.0605 65 60.5066 65.8036 59.7294 67.2559C58.899 68.8078 57.9939 70.8742 58 72.5C58.0071 74.4052 58.9191 76.3851 59.7487 77.7938Z" fill="#FEFEFE"/>
<path d="M137.251 77.7938C136.49 79.0868 135.046 79.752 133.546 79.752C123.842 79.752 118.024 79.752 112.646 79.752C109.886 79.752 107.649 81.9877 107.646 84.7472C107.636 95.2986 107.625 105.811 107.615 116.294C107.604 128.412 107.592 140.494 107.58 152.556C107.579 153.613 107.579 154.036 107.251 154.621C106.659 155.674 106.106 156.899 105.155 157.642C103.61 158.85 100.578 159.892 98.373 160C95.5567 159.761 91.3433 159.171 89.7808 156.132C89.0027 154.618 89.0027 154.671 89.0027 152.556C88.9933 140.458 89.0122 118.575 89.0027 106.42C89.0027 92.0364 89.0027 92.0001 89.0027 79.8444C89.0027 79.7845 89.0034 79.7313 89.0063 79.6715C89.064 78.5028 89.9098 65 98.2342 65C108.003 65 122.736 65 133.292 65C134.939 65 136.493 65.8036 137.271 67.2559C138.101 68.8078 139.006 70.8742 139 72.5C138.993 74.4052 138.081 76.3851 137.251 77.7938Z" fill="#FEFEFE"/>
</svg>
